<svg width="268" height="63" viewBox="0 0 268 63" fill="none" xmlns="http://www.w3.org/2000/svg">
<g clip-path="url(#clip0)">
<path d="M230.124 20.9928L234.908 20.9928L260.038 47.869L253.218 47.869L232.907 26.7243L227.624 20.9928L230.124 20.9928Z" fill="#9BBAF8" stroke="#9BBAF8" stroke-width="2"/>
<path d="M260.854 19.8423L256.056 24.4406L256.046 24.4495L256.037 24.4585L225.842 54.9134L225.842 46.0774L248.87 23.0643L248.872 23.0621L252.074 19.8423L260.854 19.8423Z" fill="#9BBAF8" stroke="#9BBAF8" stroke-width="2"/>
<path d="M27.216 38.088V45H3.264V10.92H26.784V17.832H11.136V24.456H24.576V30.84H11.136V38.088H27.216ZM38.463 10.92L45.903 22.68L53.343 10.92H61.839L50.031 28.2L61.455 45H52.959L45.903 33.72L38.847 45H30.303L41.727 28.2L29.919 10.92H38.463Z" fill="white"/>
<path d="M63.016 32.424C63.016 30.664 63.32 29 63.928 27.432C64.536 25.864 65.384 24.504 66.472 23.352C67.56 22.2 68.856 21.288 70.36 20.616C71.864 19.944 73.512 19.608 75.304 19.608C77.576 19.608 79.576 20.12 81.304 21.144C83.032 22.168 84.328 23.592 85.192 25.416L82.84 26.184C82.104 24.808 81.048 23.736 79.672 22.968C78.328 22.168 76.84 21.768 75.208 21.768C73.832 21.768 72.552 22.04 71.368 22.584C70.184 23.128 69.144 23.88 68.248 24.84C67.384 25.8 66.696 26.936 66.184 28.248C65.672 29.528 65.416 30.92 65.416 32.424C65.416 33.928 65.672 35.352 66.184 36.696C66.728 38.008 67.432 39.16 68.296 40.152C69.192 41.112 70.232 41.88 71.416 42.456C72.632 43.032 73.912 43.32 75.256 43.32C76.12 43.32 76.968 43.192 77.8 42.936C78.664 42.68 79.448 42.344 80.152 41.928C80.888 41.512 81.512 41.032 82.024 40.488C82.568 39.912 82.936 39.32 83.128 38.712L85.48 39.384C85.16 40.248 84.664 41.064 83.992 41.832C83.352 42.568 82.584 43.208 81.688 43.752C80.792 44.296 79.8 44.712 78.712 45C77.624 45.32 76.504 45.48 75.352 45.48C73.592 45.48 71.96 45.144 70.456 44.472C68.952 43.768 67.64 42.824 66.52 41.64C65.432 40.424 64.568 39.032 63.928 37.464C63.32 35.896 63.016 34.216 63.016 32.424ZM111.3 45H108.9V31.08C108.9 24.904 106.836 21.816 102.708 21.816C101.684 21.816 100.676 22.008 99.6843 22.392C98.7243 22.776 97.8123 23.32 96.9483 24.024C96.1163 24.728 95.3803 25.56 94.7403 26.52C94.1003 27.448 93.6203 28.456 93.3003 29.544V45H90.9003V9.96H93.3003V25.992C94.3243 24.04 95.7323 22.488 97.5243 21.336C99.3483 20.184 101.3 19.608 103.38 19.608C104.756 19.608 105.94 19.864 106.932 20.376C107.924 20.888 108.74 21.624 109.38 22.584C110.052 23.544 110.532 24.712 110.82 26.088C111.14 27.432 111.3 28.952 111.3 30.648V45ZM124.701 45.48C123.549 45.48 122.477 45.288 121.485 44.904C120.493 44.488 119.613 43.944 118.845 43.272C118.109 42.568 117.533 41.752 117.117 40.824C116.701 39.864 116.493 38.84 116.493 37.752C116.493 36.664 116.749 35.672 117.261 34.776C117.773 33.88 118.477 33.112 119.373 32.472C120.301 31.8 121.405 31.288 122.685 30.936C123.965 30.552 125.373 30.36 126.909 30.36C128.253 30.36 129.597 30.488 130.941 30.744C132.317 30.968 133.549 31.288 134.637 31.704V29.256C134.637 26.888 133.965 25.016 132.621 23.64C131.277 22.232 129.453 21.528 127.148 21.528C125.933 21.528 124.637 21.784 123.261 22.296C121.917 22.808 120.541 23.544 119.133 24.504L118.221 22.872C121.421 20.696 124.461 19.608 127.341 19.608C130.349 19.608 132.717 20.488 134.445 22.248C136.173 23.976 137.037 26.376 137.037 29.448V41.64C137.037 42.44 137.389 42.84 138.093 42.84V45C137.933 45.032 137.757 45.048 137.565 45.048C137.405 45.08 137.261 45.096 137.133 45.096C136.493 45.096 135.981 44.888 135.597 44.472C135.213 44.024 134.989 43.496 134.925 42.888V40.824C133.773 42.328 132.301 43.48 130.509 44.28C128.717 45.08 126.781 45.48 124.701 45.48ZM125.181 43.56C127.037 43.56 128.733 43.208 130.269 42.504C131.837 41.8 133.037 40.872 133.869 39.72C134.381 39.048 134.637 38.408 134.637 37.8V33.384C133.485 32.936 132.285 32.6 131.037 32.376C129.789 32.152 128.493 32.04 127.148 32.04C125.901 32.04 124.765 32.184 123.741 32.472C122.717 32.728 121.837 33.096 121.101 33.576C120.365 34.056 119.789 34.648 119.373 35.352C118.989 36.024 118.797 36.776 118.797 37.608C118.797 38.44 118.957 39.224 119.277 39.96C119.597 40.696 120.045 41.336 120.621 41.88C121.197 42.392 121.869 42.808 122.637 43.128C123.437 43.416 124.285 43.56 125.181 43.56ZM164.738 45H162.338V31.08C162.338 27.848 161.874 25.496 160.946 24.024C160.05 22.552 158.61 21.816 156.626 21.816C155.57 21.816 154.514 22.008 153.458 22.392C152.434 22.776 151.474 23.32 150.578 24.024C149.682 24.728 148.898 25.56 148.226 26.52C147.554 27.448 147.058 28.456 146.738 29.544V45H144.338V20.04H146.594V25.992C147.106 25.032 147.73 24.168 148.466 23.4C149.234 22.6 150.082 21.928 151.01 21.384C151.97 20.808 152.978 20.376 154.034 20.088C155.09 19.768 156.178 19.608 157.298 19.608C160.018 19.608 161.938 20.568 163.058 22.488C164.178 24.376 164.738 27.096 164.738 30.648V45ZM182.074 45.384C180.346 45.384 178.762 45.032 177.322 44.328C175.882 43.592 174.634 42.632 173.578 41.448C172.554 40.232 171.738 38.856 171.13 37.32C170.554 35.784 170.266 34.2 170.266 32.568C170.266 30.872 170.538 29.24 171.082 27.672C171.658 26.104 172.458 24.728 173.482 23.544C174.506 22.328 175.722 21.368 177.13 20.664C178.57 19.96 180.154 19.608 181.882 19.608C184.058 19.608 185.946 20.184 187.546 21.336C189.178 22.456 190.554 23.832 191.674 25.464V20.04H193.882V45.48C193.882 47.176 193.562 48.664 192.922 49.944C192.282 51.224 191.418 52.28 190.33 53.112C189.274 53.976 188.026 54.616 186.586 55.032C185.178 55.48 183.69 55.704 182.122 55.704C180.682 55.704 179.386 55.56 178.234 55.272C177.082 55.016 176.058 54.632 175.162 54.12C174.298 53.64 173.514 53.032 172.81 52.296C172.138 51.592 171.546 50.808 171.034 49.944L172.666 48.84C173.658 50.536 175.002 51.768 176.698 52.536C178.394 53.336 180.202 53.736 182.122 53.736C183.402 53.736 184.602 53.56 185.722 53.208C186.874 52.856 187.866 52.328 188.698 51.624C189.562 50.952 190.234 50.104 190.714 49.08C191.226 48.056 191.482 46.856 191.482 45.48V40.008C190.458 41.64 189.098 42.952 187.402 43.944C185.706 44.904 183.93 45.384 182.074 45.384ZM182.65 43.32C183.706 43.32 184.73 43.128 185.722 42.744C186.746 42.328 187.658 41.8 188.458 41.16C189.29 40.52 189.962 39.8 190.474 39C191.018 38.2 191.354 37.4 191.482 36.6V28.392C191.098 27.432 190.586 26.552 189.946 25.752C189.306 24.92 188.57 24.216 187.738 23.64C186.938 23.064 186.058 22.616 185.098 22.296C184.17 21.944 183.226 21.768 182.266 21.768C180.762 21.768 179.418 22.088 178.234 22.728C177.05 23.368 176.042 24.2 175.21 25.224C174.41 26.248 173.786 27.416 173.338 28.728C172.922 30.008 172.714 31.304 172.714 32.616C172.714 34.056 172.97 35.416 173.482 36.696C173.994 37.976 174.698 39.112 175.594 40.104C176.49 41.096 177.546 41.88 178.762 42.456C179.978 43.032 181.274 43.32 182.65 43.32ZM211.993 45.48C210.233 45.48 208.601 45.144 207.097 44.472C205.593 43.768 204.281 42.824 203.161 41.64C202.073 40.424 201.209 39.032 200.569 37.464C199.961 35.896 199.657 34.216 199.657 32.424C199.657 30.664 199.961 29.016 200.569 27.48C201.209 25.912 202.073 24.552 203.161 23.4C204.249 22.216 205.529 21.288 207.001 20.616C208.505 19.944 210.121 19.608 211.849 19.608C213.609 19.608 215.241 19.96 216.745 20.664C218.249 21.336 219.545 22.264 220.633 23.448C221.721 24.6 222.569 25.96 223.177 27.528C223.785 29.064 224.089 30.696 224.089 32.424C224.089 32.584 224.089 32.792 224.089 33.048C224.089 33.272 224.073 33.416 224.041 33.48H202.153C202.249 34.92 202.585 36.264 203.161 37.512C203.737 38.728 204.457 39.784 205.321 40.68C206.217 41.576 207.241 42.28 208.393 42.792C209.545 43.304 210.777 43.56 212.089 43.56C212.953 43.56 213.801 43.448 214.633 43.224C215.465 42.968 216.233 42.632 216.937 42.216C217.673 41.8 218.313 41.304 218.857 40.728C219.433 40.12 219.881 39.464 220.201 38.76L222.313 39.336C221.961 40.232 221.433 41.064 220.729 41.832C220.057 42.568 219.257 43.208 218.329 43.752C217.433 44.296 216.441 44.712 215.353 45C214.265 45.32 213.145 45.48 211.993 45.48ZM221.785 31.56C221.689 30.088 221.353 28.744 220.777 27.528C220.233 26.312 219.513 25.272 218.617 24.408C217.753 23.512 216.745 22.824 215.593 22.344C214.441 21.832 213.209 21.576 211.897 21.576C210.585 21.576 209.353 21.832 208.201 22.344C207.049 22.824 206.025 23.512 205.129 24.408C204.265 25.272 203.561 26.328 203.017 27.576C202.505 28.792 202.201 30.12 202.105 31.56H221.785Z" fill="white"/>
<path d="M238.586 29.4142L240 28L244.827 32.8268L243.413 34.241L238.586 29.4142Z" fill="#9BBAF8"/>
<path d="M236 28.4142L237.414 27L242.241 31.8268L242.241 35.1618L236 28.4142Z" fill="#9BBAF8"/>
<path d="M240.242 33L241.5 31.0858L246.327 35.9126L246.327 39.2476L240.242 33Z" fill="#9BBAF8"/>
<path d="M241.742 33.4142L243.5 31.5L247.827 36.3268L247.827 39.6618L241.742 33.4142Z" fill="#9BBAF8"/>
</g>
<defs>
<clipPath id="clip0">
<rect width="268" height="63" fill="white"/>
</clipPath>
</defs>
</svg>
